<svg width="20" height="20" viewBox="0 0 20 20" fill="none" xmlns="http://www.w3.org/2000/svg">
<path d="M17.9526 5.41501C18.3334 6.90001 18.3334 10 18.3334 10C18.3334 10 18.3334 13.1 17.9526 14.585C17.7409 15.4058 17.1217 16.0517 16.3376 16.27C14.9134 16.6667 10.0001 16.6667 10.0001 16.6667C10.0001 16.6667 5.08925 16.6667 3.66258 16.27C2.87508 16.0483 2.25675 15.4033 2.04758 14.585C1.66675 13.1 1.66675 10 1.66675 10C1.66675 10 1.66675 6.90001 2.04758 5.41501C2.25925 4.59418 2.87841 3.94834 3.66258 3.73001C5.08925 3.33334 10.0001 3.33334 10.0001 3.33334C10.0001 3.33334 14.9134 3.33334 16.3376 3.73001C17.1251 3.95168 17.7434 4.59668 17.9526 5.41501ZM8.33342 12.9167L13.3334 10L8.33342 7.08334V12.9167Z" fill="white"/>
</svg>
