<svg width="20" height="20" viewBox="0 0 20 20" fill="none" xmlns="http://www.w3.org/2000/svg">
<path d="M10.0001 5.99414C7.78329 5.99414 5.99423 7.7832 5.99423 10C5.99423 12.2168 7.78329 14.0059 10.0001 14.0059C12.2169 14.0059 14.0059 12.2168 14.0059 10C14.0059 7.7832 12.2169 5.99414 10.0001 5.99414ZM10.0001 12.6035C8.5665 12.6035 7.39658 11.4336 7.39658 10C7.39658 8.56641 8.5665 7.39648 10.0001 7.39648C11.4337 7.39648 12.6036 8.56641 12.6036 10C12.6036 11.4336 11.4337 12.6035 10.0001 12.6035ZM14.17 4.89649C13.6524 4.89649 13.2345 5.31445 13.2345 5.83203C13.2345 6.34961 13.6524 6.76758 14.17 6.76758C14.6876 6.76758 15.1056 6.35156 15.1056 5.83203C15.1057 5.70913 15.0816 5.58741 15.0347 5.47383C14.9877 5.36026 14.9188 5.25706 14.8319 5.17016C14.745 5.08325 14.6418 5.01435 14.5282 4.96739C14.4146 4.92042 14.2929 4.89633 14.17 4.89649ZM17.8087 10C17.8087 8.92188 17.8184 7.85352 17.7579 6.77734C17.6974 5.52734 17.4122 4.41797 16.4981 3.50391C15.5821 2.58789 14.4747 2.30469 13.2247 2.24414C12.1466 2.18359 11.0782 2.19336 10.002 2.19336C8.92392 2.19336 7.85556 2.18359 6.77939 2.24414C5.52939 2.30469 4.42001 2.58984 3.50595 3.50391C2.58994 4.41992 2.30673 5.52734 2.24619 6.77734C2.18564 7.85547 2.19541 8.92383 2.19541 10C2.19541 11.0762 2.18564 12.1465 2.24619 13.2227C2.30673 14.4727 2.59189 15.582 3.50595 16.4961C4.42197 17.4121 5.52939 17.6953 6.77939 17.7559C7.85751 17.8164 8.92587 17.8066 10.002 17.8066C11.0802 17.8066 12.1485 17.8164 13.2247 17.7559C14.4747 17.6953 15.5841 17.4102 16.4981 16.4961C17.4142 15.5801 17.6974 14.4727 17.7579 13.2227C17.8204 12.1465 17.8087 11.0781 17.8087 10ZM16.0899 14.6055C15.9474 14.9609 15.7755 15.2266 15.5001 15.5C15.2247 15.7754 14.961 15.9473 14.6056 16.0898C13.5782 16.498 11.1388 16.4062 10.0001 16.4062C8.86142 16.4062 6.42001 16.498 5.39267 16.0918C5.0372 15.9492 4.77158 15.7773 4.49814 15.502C4.22275 15.2266 4.05087 14.9629 3.9083 14.6074C3.50205 13.5781 3.59384 11.1387 3.59384 10C3.59384 8.86133 3.50205 6.41992 3.9083 5.39258C4.05087 5.03711 4.22275 4.77149 4.49814 4.49805C4.77353 4.22461 5.0372 4.05078 5.39267 3.9082C6.42001 3.50195 8.86142 3.59375 10.0001 3.59375C11.1388 3.59375 13.5802 3.50195 14.6075 3.9082C14.963 4.05078 15.2286 4.22266 15.502 4.49805C15.7774 4.77344 15.9493 5.03711 16.0919 5.39258C16.4981 6.41992 16.4063 8.86133 16.4063 10C16.4063 11.1387 16.4981 13.5781 16.0899 14.6055Z" fill="white"/>
</svg>
